<svg xmlns="http://www.w3.org/2000/svg" viewBox="0 0 400 400"><path fill="#04a464" d="M215 36c-15 2-36 6-37 24 0 14-13 44 12 39 24 1 49-10 60-33 9-13 1-35-17-35-6 0-13 2-18 5m21 79c-21 5-47 10-57 31-4 14 3 27 6 41 16 9 41-6 53-18 10-14 19-34 10-50-3-3-8-5-12-4Zm20 76c-14 7-27 16-37 27a30 30 0 0 0-2 43c5 14 20 25 31 10 20-12 32-36 27-59-2-9-7-24-19-21Zm50 65c-16 9-29 24-37 41-7 12-4 26 8 34 7 12 27 28 36 8 6-15 17-27 17-44 0-14-5-33-19-39l-2-1z"/><path fill="#d3eb8b" d="M171 1c-13 13-13 34-17 51a317 317 0 0 0 63 249c20 28 46 52 70 77 4 9 28 23 28 9-39-40-82-76-111-124-46-78-55-177-24-262-2-3-6 0-9 0Z"/><path fill="#8ce36c" d="M180 3a306 306 0 0 0 72 320c22 22 43 44 66 64 8-21-21-29-30-45-23-24-49-47-68-75-16-32-36-64-41-100-5-29-5-59-4-88 1-23 10-45 13-67 2-3-5-15-8-9ZM84 36c-21 3-12 30-2 41 12 16 32 22 52 21 25 3 25-25 17-41-15-22-44-23-67-21m30 112c-15 5-49 5-38 29 11 23 39 34 63 28 15 0 29-7 22-23-1-19-15-35-34-34h-2m43 112c-20 3-39 17-51 31 1 23 31 31 51 29 16-3 29-15 42-23-3-13-14-24-21-35-6-3-13-2-20-2m66 78c-21 3-37 21-50 36-5 17 16 25 29 27 16 1 35-3 45-16 11-7 26-19 8-28-8-10-17-23-31-20"/></svg>
